<svg width="30" height="31" viewBox="0 0 30 31" fill="none" xmlns="http://www.w3.org/2000/svg">
<path d="M23.7131 19.1375C24.743 17.8343 25.3061 16.2235 25.3125 14.5625C25.3125 13.0791 24.8726 11.6291 24.0485 10.3957C23.2244 9.16235 22.0531 8.20106 20.6826 7.6334C19.3122 7.06575 17.8042 6.91722 16.3493 7.20661C14.8945 7.496 13.5581 8.2103 12.5092 9.2592C11.4603 10.3081 10.746 11.6445 10.4566 13.0993C10.1672 14.5542 10.3157 16.0622 10.8834 17.4326C11.4511 18.8031 12.4124 19.9744 13.6457 20.7985C14.8791 21.6226 16.3291 22.0625 17.8125 22.0625C19.4735 22.0561 21.0843 21.493 22.3875 20.4631L27.4631 25.5387C27.6399 25.7095 27.8768 25.804 28.1226 25.8019C28.3684 25.7997 28.6035 25.7011 28.7773 25.5273C28.9511 25.3535 29.0497 25.1184 29.0519 24.8726C29.054 24.6268 28.9595 24.3899 28.7887 24.2131L23.7131 19.1375ZM12.1875 14.5625C12.1875 13.45 12.5174 12.3624 13.1355 11.4374C13.7536 10.5124 14.6321 9.79142 15.6599 9.36568C16.6877 8.93994 17.8187 8.82854 18.9099 9.04558C20.001 9.26263 21.0033 9.79835 21.79 10.585C22.5766 11.3717 23.1124 12.374 23.3294 13.4651C23.5465 14.5563 23.4351 15.6873 23.0093 16.7151C22.5836 17.7429 21.8626 18.6214 20.9376 19.2395C20.0126 19.8576 18.925 20.1875 17.8125 20.1875C16.3211 20.186 14.8912 19.5929 13.8367 18.5383C12.7821 17.4838 12.189 16.0539 12.1875 14.5625ZM28.125 3.3125H1.875C1.62636 3.3125 1.3879 3.41127 1.21209 3.58709C1.03627 3.7629 0.9375 4.00136 0.9375 4.25C0.9375 4.49864 1.03627 4.7371 1.21209 4.91291C1.3879 5.08873 1.62636 5.1875 1.875 5.1875H28.125C28.3736 5.1875 28.6121 5.08873 28.7879 4.91291C28.9637 4.7371 29.0625 4.49864 29.0625 4.25C29.0625 4.00136 28.9637 3.7629 28.7879 3.58709C28.6121 3.41127 28.3736 3.3125 28.125 3.3125ZM1.875 16.4375H7.5C7.74864 16.4375 7.9871 16.3387 8.16291 16.1629C8.33873 15.9871 8.4375 15.7486 8.4375 15.5C8.4375 15.2514 8.33873 15.0129 8.16291 14.8371C7.9871 14.6613 7.74864 14.5625 7.5 14.5625H1.875C1.62636 14.5625 1.3879 14.6613 1.21209 14.8371C1.03627 15.0129 0.9375 15.2514 0.9375 15.5C0.9375 15.7486 1.03627 15.9871 1.21209 16.1629C1.3879 16.3387 1.62636 16.4375 1.875 16.4375ZM1.875 22.0625H7.5C7.74864 22.0625 7.9871 21.9637 8.16291 21.7879C8.33873 21.6121 8.4375 21.3736 8.4375 21.125C8.4375 20.8764 8.33873 20.6379 8.16291 20.4621C7.9871 20.2863 7.74864 20.1875 7.5 20.1875H1.875C1.62636 20.1875 1.3879 20.2863 1.21209 20.4621C1.03627 20.6379 0.9375 20.8764 0.9375 21.125C0.9375 21.3736 1.03627 21.6121 1.21209 21.7879C1.3879 21.9637 1.62636 22.0625 1.875 22.0625ZM1.875 27.6875H22.5C22.7486 27.6875 22.9871 27.5887 23.1629 27.4129C23.3387 27.2371 23.4375 26.9986 23.4375 26.75C23.4375 26.5014 23.3387 26.2629 23.1629 26.0871C22.9871 25.9113 22.7486 25.8125 22.5 25.8125H1.875C1.62636 25.8125 1.3879 25.9113 1.21209 26.0871C1.03627 26.2629 0.9375 26.5014 0.9375 26.75C0.9375 26.9986 1.03627 27.2371 1.21209 27.4129C1.3879 27.5887 1.62636 27.6875 1.875 27.6875ZM1.875 10.8125H7.5C7.74864 10.8125 7.9871 10.7137 8.16291 10.5379C8.33873 10.3621 8.4375 10.1236 8.4375 9.875C8.4375 9.62636 8.33873 9.3879 8.16291 9.21209C7.9871 9.03627 7.74864 8.9375 7.5 8.9375H1.875C1.62636 8.9375 1.3879 9.03627 1.21209 9.21209C1.03627 9.3879 0.9375 9.62636 0.9375 9.875C0.9375 10.1236 1.03627 10.3621 1.21209 10.5379C1.3879 10.7137 1.62636 10.8125 1.875 10.8125Z" fill="white"/>
</svg>
