<svg width="33" height="32" viewBox="0 0 33 32" fill="none" xmlns="http://www.w3.org/2000/svg">
<path fill-rule="evenodd" clip-rule="evenodd" d="M0.703125 16C0.703125 7.16344 7.86657 0 16.7031 0C25.5397 0 32.7031 7.16344 32.7031 16C32.7031 24.8366 25.5397 32 16.7031 32C7.86657 32 0.703125 24.8366 0.703125 16ZM16.7031 8C21.1031 8 24.7031 11.6 24.7031 16C24.7031 20 21.8031 23.4 17.8031 24V18.3H19.7031L20.1031 16H17.9031V14.5C17.9031 13.9 18.2031 13.3 19.2031 13.3H20.2031V11.3C20.2031 11.3 19.3031 11.1 18.4031 11.1C16.6031 11.1 15.4031 12.2 15.4031 14.2V16H13.4031V18.3H15.4031V23.9C11.6031 23.3 8.70312 20 8.70312 16C8.70312 11.6 12.3031 8 16.7031 8Z" fill="white"/>
</svg>
