<svg width="33" height="32" viewBox="0 0 33 32" fill="none" xmlns="http://www.w3.org/2000/svg">
<path d="M16.7031 18.8C15.2031 18.8 13.9031 17.6 13.9031 16C13.9031 14.5 15.1031 13.2 16.7031 13.2C18.2031 13.2 19.5031 14.4 19.5031 16C19.5031 17.5 18.2031 18.8 16.7031 18.8Z" fill="white"/>
<path fill-rule="evenodd" clip-rule="evenodd" d="M20.1031 9.2H13.3031C12.5031 9.3 12.1031 9.4 11.8031 9.5C11.4031 9.6 11.1031 9.8 10.8031 10.1C10.5657 10.3374 10.4536 10.5748 10.318 10.8617C10.2823 10.9373 10.2448 11.0166 10.2031 11.1C10.1877 11.1464 10.1698 11.1952 10.1506 11.2475C10.046 11.5333 9.90312 11.9238 9.90312 12.6V19.4C10.0031 20.2 10.1031 20.6 10.2031 20.9C10.3031 21.3 10.5031 21.6 10.8031 21.9C11.0405 22.1374 11.2779 22.2495 11.5648 22.3851C11.6405 22.4209 11.7196 22.4583 11.8031 22.5C11.8495 22.5155 11.8983 22.5333 11.9506 22.5525C12.2365 22.6571 12.6269 22.8 13.3031 22.8H20.1031C20.9031 22.7 21.3031 22.6 21.6031 22.5C22.0031 22.4 22.3031 22.2 22.6031 21.9C22.8405 21.6626 22.9527 21.4252 23.0882 21.1383C23.124 21.0626 23.1614 20.9835 23.2031 20.9C23.2186 20.8536 23.2365 20.8048 23.2556 20.7525C23.3602 20.4667 23.5031 20.0762 23.5031 19.4V12.6C23.4031 11.8 23.3031 11.4 23.2031 11.1C23.1031 10.7 22.9031 10.4 22.6031 10.1C22.3657 9.86261 22.1284 9.75045 21.8414 9.61488C21.7659 9.57918 21.6865 9.54167 21.6031 9.5C21.5567 9.48453 21.5079 9.46666 21.4556 9.44752C21.1698 9.3429 20.7794 9.2 20.1031 9.2ZM16.7031 11.7C14.3031 11.7 12.4031 13.6 12.4031 16C12.4031 18.4 14.3031 20.3 16.7031 20.3C19.1031 20.3 21.0031 18.4 21.0031 16C21.0031 13.6 19.1031 11.7 16.7031 11.7ZM22.1031 11.6C22.1031 12.1523 21.6554 12.6 21.1031 12.6C20.5508 12.6 20.1031 12.1523 20.1031 11.6C20.1031 11.0477 20.5508 10.6 21.1031 10.6C21.6554 10.6 22.1031 11.0477 22.1031 11.6Z" fill="white"/>
<path fill-rule="evenodd" clip-rule="evenodd" d="M0.703125 16C0.703125 7.16344 7.86657 0 16.7031 0C25.5397 0 32.7031 7.16344 32.7031 16C32.7031 24.8366 25.5397 32 16.7031 32C7.86657 32 0.703125 24.8366 0.703125 16ZM13.3031 7.7H20.1031C21.0031 7.8 21.6031 7.9 22.1031 8.1C22.7031 8.4 23.1031 8.6 23.6031 9.1C24.1031 9.6 24.4031 10.1 24.6031 10.6C24.8031 11.1 25.0031 11.7 25.0031 12.6V19.4C24.9031 20.3 24.8031 20.9 24.6031 21.4C24.3031 22 24.1031 22.4 23.6031 22.9C23.1031 23.4 22.6031 23.7 22.1031 23.9C21.6031 24.1 21.0031 24.3 20.1031 24.3H13.3031C12.4031 24.2 11.8031 24.1 11.3031 23.9C10.7031 23.6 10.3031 23.4 9.80313 22.9C9.30313 22.4 9.00313 21.9 8.80313 21.4C8.60313 20.9 8.40312 20.3 8.40312 19.4V12.6C8.50312 11.7 8.60313 11.1 8.80313 10.6C9.10313 10 9.30313 9.6 9.80313 9.1C10.3031 8.6 10.8031 8.3 11.3031 8.1C11.8031 7.9 12.4031 7.7 13.3031 7.7Z" fill="white"/>
</svg>
