<svg width="32" height="32" viewBox="0 0 32 32" fill="none" xmlns="http://www.w3.org/2000/svg">
<circle cx="16" cy="16" r="16" fill="#D83934"/>
<path d="M23.5721 10.5672C22.6403 9.55659 21.3617 9 19.9717 9C18.9327 9 17.9811 9.3285 17.1434 9.97629C16.7207 10.3032 16.3377 10.7033 16 11.1702C15.6624 10.7034 15.2793 10.3032 14.8565 9.97629C14.0189 9.3285 13.0673 9 12.0283 9C10.6382 9 9.35958 9.55659 8.4278 10.5672C7.50716 11.566 7 12.9305 7 14.4095C7 15.9318 7.56732 17.3253 8.78527 18.795C9.87483 20.1097 11.4408 21.4442 13.2542 22.9896C13.8735 23.5174 14.5754 24.1155 15.3042 24.7527C15.4967 24.9214 15.744 25.0143 16 25.0142C16.2561 25.0142 16.5033 24.9214 16.6956 24.753C17.4244 24.1157 18.1267 23.5172 18.7462 22.9892C20.5593 21.444 22.1253 20.1097 23.2149 18.7948C24.4328 17.3254 25 15.9318 25 14.4094C25 12.9305 24.4928 11.566 23.5721 10.5672Z" fill="white"/>
</svg>
