<svg width="32" height="32" viewBox="0 0 32 32" fill="none" xmlns="http://www.w3.org/2000/svg">
<circle cx="16" cy="16" r="16" fill="#1D1D1D"/>
<path d="M16 7C13.383 7 11.2539 9.1291 11.2539 11.7461C11.2539 14.3631 13.383 16.4922 16 16.4922C18.617 16.4922 20.7461 14.3631 20.7461 11.7461C20.7461 9.1291 18.617 7 16 7ZM21.9051 19.5928C20.6057 18.2734 18.8831 17.5469 17.0547 17.5469H14.9453C13.1169 17.5469 11.3943 18.2734 10.0949 19.5928C8.80193 20.9057 8.08984 22.6387 8.08984 24.4727C8.08984 24.7639 8.32595 25 8.61719 25H23.3828C23.674 25 23.9102 24.7639 23.9102 24.4727C23.9102 22.6387 23.1981 20.9057 21.9051 19.5928Z" fill="white"/>
</svg>
