<svg width="68" height="38" viewBox="0 0 68 38" fill="none" xmlns="http://www.w3.org/2000/svg">
<path d="M43.9333 19.2001C44.2798 19.7774 43.3719 25.7929 42.157 24.078C41.8162 23.4535 41.7094 22.7044 40.9293 22.3813C40.4442 23.9381 41.6255 25.5512 41.5384 27.1506C41.5282 27.5249 41.3426 27.7655 40.8861 27.6602C40.1886 27.4993 40.0411 27.8553 39.9191 28.3576C39.5929 29.7016 39.3869 31.0951 38.8287 32.3612C36.765 37.6965 29.86 39.3272 25.2799 35.3855C23.6714 34.1501 22.4704 32.5273 20.9179 31.2498C19.5898 30.5224 18.1904 29.8819 17.2088 28.667C16.1655 30.8341 15.0663 33.1359 12.1475 33.3333C10.2694 33.5403 8.3494 33.8116 6.47961 33.1911C2.87735 32.297 1.2091 28.8035 0.952881 25.7087C0.963053 23.8642 0.984669 22.0184 1.06859 20.1756C1.17286 16.9682 4.25887 14.2813 7.86749 14.2972C8.35576 14.2648 8.53505 14.0901 8.61388 13.6744C9.04684 9.32087 11.8067 4.38438 17.3061 4.13013C18.2419 4.15516 19.2509 3.67396 20.0253 4.34001C19.153 6.16354 14.7681 4.42704 12.2905 7.61849C10.9942 9.05354 7.89038 13.3274 10.9109 14.3899C12.4463 15.0804 14.1196 15.0099 15.7777 14.788C18.2172 14.1925 19.5898 16.3403 21.808 16.4028C24.4248 16.4739 28.4219 16.7037 28.5872 13.5589C28.6666 13.2227 28.7016 12.7575 29.2248 12.8337C29.7614 12.9116 29.4003 13.3365 29.4168 13.6067C29.3348 14.5662 29.1727 15.561 30.443 15.8716C31.6204 16.2532 32.8436 16.5371 33.9867 16.9858C37.0944 18.0671 38.5236 20.9633 42.185 20.427C43.1838 20.4782 43.2619 19.7769 43.9333 19.2001ZM31.1283 36.5913C37.596 36.6732 39.8695 29.7204 39.1206 25.0279C38.7582 21.8569 36.3747 19.3417 33.2378 17.9294C25.4846 14.4411 20.1976 24.38 22.5143 29.994C23.6911 33.116 27.2514 36.6988 31.1283 36.5913ZM16.3518 23.4677C16.3919 21.7881 16.0314 20.1591 15.3206 18.525C13.6523 15.2027 8.93558 13.9991 5.54948 15.8158C-0.981125 18.604 0.706839 31.7743 8.08301 32.5734C15.1063 34.0227 16.5419 28.5254 16.3518 23.4677ZM18.5592 20.555C17.7079 19.2837 16.7441 16.2117 15.4554 15.5508C15.1 15.4723 14.4788 15.8022 14.7185 16.1986C15.2532 16.8072 17.5935 22.4274 17.7168 23.9881C17.8166 25.2491 17.8198 25.2327 19.2318 25.2372C19.7195 25.2389 19.8428 25.0677 19.8956 24.661C20.2847 21.9684 21.6579 19.6267 23.6803 17.624C22.1595 17.6462 20.7068 17.0205 20.5402 18.7712C20.2739 20.0459 18.8122 21.3478 18.5592 20.555Z" fill="#1D1D1D"/>
<path d="M50.1155 2.64773C51.5695 3.04474 52.8836 2.58288 54.2181 2.41225C57.0307 2.05278 59.844 1.69273 62.642 1.25648C63.878 1.25363 67.0072 -0.31963 67.7282 0.461882C68.06 0.791209 67.9564 1.69501 67.5597 2.22739C65.3116 5.23399 60.0557 5.75955 56.5037 7.20768C55.8514 7.41586 55.8133 7.99204 55.3739 8.32023C54.564 8.92485 54.8571 9.7456 55.0986 10.4668C55.4846 11.7881 56.7981 17.7797 54.6937 17.9122C49.1981 19.2227 44.3936 15.6303 39.8517 13.4251C39.4753 14.3505 40.1963 15.3732 39.7881 16.215C38.9451 16.4112 38.329 15.2714 38.0277 14.7452C37.5445 13.6958 36.8369 8.91063 39.3672 10.419C39.9909 10.8513 40.5707 11.3507 41.2866 11.6579C41.3438 11.6243 41.401 11.5907 41.4583 11.5566C40.8772 10.2592 40.4531 8.11091 38.4498 8.24117C38.1109 8.25368 37.6468 8.47323 37.4389 7.98976C38.5865 7.65645 39.9102 7.53189 40.9897 8.1621C41.0762 8.21784 41.2987 8.19509 41.3947 8.13196C43.8201 6.85447 45.3676 4.69308 47.8375 3.47758C48.1853 3.32117 48.4492 2.98502 48.7028 2.69664C49.062 2.28882 48.8923 1.83038 48.3226 1.80535C46.2074 1.72686 44.4343 3.10389 42.4354 3.46791C40.3266 3.91498 38.3875 4.96894 36.114 4.84722C34.3599 4.75337 32.5976 4.69024 30.8428 4.73517C28.3589 4.71242 22.4304 5.85454 20.4964 4.79774C20.4207 4.27559 20.7869 3.77563 21.4818 3.8763C25.456 3.9565 29.4251 3.82284 33.3974 3.73411C35.5965 3.56802 37.9552 4.31768 39.968 3.23642C40.4741 2.94406 41.1416 2.78082 41.7501 2.74385C43.5175 2.63635 45.0217 1.90887 46.5864 1.29231C48.1675 0.582464 50.7513 0.365188 50.1155 2.64773ZM66.7663 2.06472C66.8991 1.68136 66.7421 1.03237 66.119 1.16319C63.4393 1.93447 60.7538 3.10048 57.8591 2.65512C56.524 2.45149 48.9234 4.98202 48.3067 4.86883C48.2578 4.77612 48.2088 4.68398 48.1599 4.59127C45.496 7.06662 43.2365 8.72179 43.0063 12.3888C43.0973 13.1595 44.4826 13.7083 45.0764 14.2652C45.6486 14.6047 46.1057 14.1611 45.9684 13.6441C45.641 12.4951 46.6919 11.725 46.7784 10.6028C47.5228 11.1016 47.5724 12.0225 47.7784 12.7619C48.0677 13.6503 47.0651 15.3163 48.0836 15.8407C48.9292 16.0113 50.7392 16.8378 52.5575 17.1927C54.2168 17.5579 54.871 16.5409 54.7986 15.297C54.5424 13.7436 54.7712 11.9235 54.0878 10.4879C53.5887 9.9498 53.5086 9.39694 53.5429 8.76047C53.5512 8.60405 53.4355 8.37085 53.2937 8.29122C52.272 7.65816 57.3448 6.27658 58.6202 5.97171C59.9311 5.28177 65.7999 3.77733 66.7663 2.06472Z" fill="#1D1D1D"/>
<path d="M26.4214 7.33161C26.1175 7.99538 26.0272 8.60455 26.0075 9.2979C26.0654 11.2363 23.7213 9.83085 24.6648 11.8006C24.8771 12.681 23.2966 12.4876 22.6901 12.7442C21.3353 13.0707 23.5643 10.1994 23.6978 9.74951C23.8745 9.4691 24.3431 9.34169 24.5471 9.06697C25.1333 8.40149 25.3183 7.43854 26.1219 6.94824C26.223 7.07679 26.3228 7.20533 26.4214 7.33161Z" fill="#1D1D1D"/>
<path d="M25.2 28.5166C23.9743 27.3091 23.6113 25.4167 23.5916 23.84C23.6208 21.2856 26.1454 18.0043 29.3065 18.3217C29.8418 18.461 30.4451 18.593 30.4896 19.2329C30.5144 19.5969 30.4222 19.7886 29.8462 19.7544C27.9771 19.6259 25.2534 20.135 24.9076 22.1092C25.0386 24.1961 24.6921 26.3683 25.3062 28.392C25.2706 28.4335 25.235 28.4751 25.2 28.5166Z" fill="#1D1D1D"/>
<path d="M28.5298 25.7213C28.4974 23.5355 31.6813 25.1378 32.1079 26.3954C32.5389 27.5739 30.5344 27.8469 29.7498 28.4271C28.7307 28.8218 28.847 26.2901 28.5298 25.7213Z" fill="#1D1D1D"/>
<path d="M11.0261 24.7502C10.9186 25.7439 10.2301 25.9327 9.35466 25.6216C8.32471 25.4464 8.17467 25.1666 8.70554 24.3305C8.93569 23.7884 9.87472 23.5404 10.3547 23.7293C10.684 23.9306 10.8112 24.3976 11.0261 24.7502Z" fill="#1D1D1D"/>
<path d="M7.9939 16.3596C5.89333 17.2986 4.7108 18.3196 3.56006 20.1118C3.79021 17.9311 5.78207 16.2748 7.9939 16.3596Z" fill="#1D1D1D"/>
<path d="M53.6455 19.7289C52.0374 18.3614 49.4903 18.4844 47.4786 17.8217C45.7675 17.3995 45.5533 17.4674 45.0777 19.024C44.9747 19.3581 45.055 19.7748 45.1786 20.1163C46.5005 22.5375 46.7352 25.1423 46.1134 27.7655C46.0331 28.2868 45.7263 28.5824 45.1765 28.665C43.6652 28.8944 42.23 29.5755 40.6239 29.2762C40.1483 29.1881 39.9094 29.4415 40.1462 29.8123C41.532 32.518 43.9637 34.6162 47.5733 34.3996C55.1136 34.6382 58.194 24.2061 53.6455 19.7289ZM49.6715 33.0522C47.0112 33.6415 43.5375 31.725 45.9775 31.0403C48.4175 30.3556 48.4237 25.3975 48.4237 25.3975C48.4237 25.3975 47.2171 20.2319 48.4237 19.7583C49.6303 19.2847 50.9419 19.7014 52.3606 21.4049C53.7793 23.1084 54.5947 26.2694 54.0635 28.3254C53.5322 30.3813 52.3318 32.463 49.6715 33.0522Z" fill="#1D1D1D"/>
</svg>
