<svg width="124" height="69" viewBox="0 0 124 69" fill="none" xmlns="http://www.w3.org/2000/svg">
<path d="M79.2547 34.867C79.8883 35.9254 78.2281 46.9538 76.0064 43.8098C75.3832 42.6649 75.1879 41.2915 73.7614 40.6992C72.8743 43.5533 75.0344 46.5106 74.8751 49.4429C74.8565 50.129 74.5171 50.5701 73.6823 50.3772C72.4069 50.0821 72.1372 50.7349 71.914 51.6557C71.3176 54.1197 70.9409 56.6745 69.9201 58.9958C66.1463 68.777 53.5193 71.7666 45.144 64.5402C42.2026 62.2753 40.0064 59.3002 37.1674 56.9582C34.7387 55.6245 32.1798 54.4503 30.3847 52.2229C28.4769 56.1959 26.4668 60.416 21.1293 60.7779C17.695 61.1574 14.1839 61.6548 10.7647 60.5172C4.17739 58.8779 1.12673 52.4732 0.658203 46.7995C0.676805 43.4178 0.716333 40.034 0.869796 36.6554C1.06046 30.7752 6.70373 25.8491 13.3026 25.8783C14.1955 25.8189 14.5234 25.4987 14.6675 24.7365C15.4593 16.7551 20.5061 7.70483 30.5626 7.23871C32.274 7.28459 34.119 6.40241 35.5351 7.62349C33.94 10.9666 25.9215 7.78304 21.3909 13.634C19.0203 16.265 13.3445 24.1004 18.868 26.0483C21.6757 27.3142 24.7357 27.1849 27.7677 26.7782C32.2286 25.6864 34.7387 29.6239 38.795 29.7386C43.5803 29.869 50.8895 30.2903 51.1918 24.5248C51.3371 23.9085 51.4011 23.0555 52.3579 23.1952C53.3391 23.3381 52.6788 24.117 52.709 24.6124C52.559 26.3715 52.2626 28.1953 54.5854 28.7647C56.7386 29.4644 58.9754 29.9847 61.0658 30.8075C66.7486 32.7898 69.3621 38.0996 76.0575 37.1163C77.8839 37.2101 78.027 35.9244 79.2547 34.867ZM55.8387 66.7509C67.6659 66.901 71.8233 54.1542 70.4538 45.5513C69.7911 39.7378 65.4325 35.1267 59.6962 32.5374C45.5183 26.1421 35.8501 44.3635 40.0866 54.6557C42.2386 60.3795 48.7492 66.9479 55.8387 66.7509ZM28.8176 42.6909C28.8908 39.6116 28.2316 36.6251 26.9318 33.6292C23.8812 27.5384 15.2558 25.3319 9.0638 28.6625C-2.87843 33.7742 0.208276 57.9196 13.6968 59.3847C26.54 62.0417 29.1652 51.9633 28.8176 42.6909ZM32.8541 37.3509C31.2974 35.0203 29.5349 29.3883 27.1783 28.1766C26.5284 28.0327 25.3925 28.6375 25.8308 29.3643C26.8086 30.4801 31.0881 40.7837 31.3137 43.6451C31.4962 45.9569 31.502 45.9267 34.0841 45.935C34.9758 45.9381 35.2014 45.6243 35.2979 44.8787C36.0094 39.9422 38.5206 35.6491 42.2188 31.9775C39.4379 32.0181 36.7814 30.8711 36.4768 34.0808C35.9896 36.4176 33.3168 38.8045 32.8541 37.3509Z" fill="white"/>
<path d="M90.56 4.52123C93.2189 5.24908 95.622 4.40235 98.0623 4.08952C103.206 3.43048 108.35 2.77041 113.467 1.9706C115.727 1.96539 121.449 -0.918925 122.768 0.513847C123.374 1.11761 123.185 2.77458 122.459 3.75062C118.349 9.26272 108.737 10.2262 102.242 12.8811C101.049 13.2628 100.979 14.3191 100.176 14.9208C98.6948 16.0293 99.2307 17.534 99.6725 18.8562C100.378 21.2786 102.78 32.2632 98.9319 32.5062C88.8824 34.9087 80.0966 28.3225 71.791 24.2797C71.1028 25.9763 72.4211 27.8512 71.6748 29.3945C70.1331 29.7543 69.0066 27.6646 68.4555 26.7C67.5719 24.7761 66.278 16.0032 70.9051 18.7686C72.0456 19.5612 73.1059 20.4767 74.415 21.0398C74.5196 20.9783 74.6243 20.9168 74.7289 20.8542C73.6663 18.4756 72.8908 14.5371 69.2275 14.7759C68.6078 14.7988 67.7591 15.2013 67.3789 14.315C69.4774 13.7039 71.898 13.4755 73.8721 14.6309C74.0302 14.7331 74.4371 14.6914 74.6126 14.5757C79.048 12.2336 81.8777 8.27104 86.3944 6.04263C87.0304 5.75587 87.5129 5.13959 87.9767 4.61091C88.6336 3.86324 88.3232 3.02276 87.2815 2.97688C83.4135 2.83298 80.171 5.35753 76.5158 6.02491C72.6595 6.84453 69.1135 8.77679 64.9561 8.55363C61.7485 8.38158 58.5257 8.26583 55.317 8.34821C50.7747 8.3065 39.9334 10.4004 36.3968 8.46291C36.2585 7.50565 36.9281 6.58905 38.1988 6.77362C45.4663 6.92065 52.7244 6.6756 59.9883 6.51292C64.0097 6.20843 68.323 7.58281 72.0038 5.6005C72.9292 5.06451 74.1499 4.76524 75.2625 4.69746C78.4946 4.50037 81.2453 3.16666 84.1064 2.0363C86.9978 0.734914 91.7226 0.336574 90.56 4.52123ZM121.009 3.45238C121.252 2.74955 120.964 1.55975 119.825 1.79959C114.925 3.21359 110.014 5.35127 104.721 4.53478C102.279 4.16147 88.3802 8.80077 87.2524 8.59326C87.1629 8.42329 87.0734 8.25436 86.9839 8.08439C82.1126 12.6225 77.9807 15.657 77.5598 22.3798C77.7261 23.7927 80.2594 24.799 81.3453 25.8199C82.3916 26.4424 83.2275 25.6291 82.9764 24.6812C82.3777 22.5748 84.2994 21.1629 84.4576 19.1055C85.819 20.02 85.9096 21.7082 86.2863 23.0638C86.8153 24.6926 84.9819 27.7469 86.8444 28.7084C88.3906 29.0212 91.7006 30.5364 95.0256 31.187C98.06 31.8565 99.2563 29.992 99.1238 27.7115C98.6552 24.8637 99.0738 21.5268 97.824 18.8948C96.9113 17.9084 96.7648 16.8948 96.8276 15.7279C96.8427 15.4412 96.6311 15.0136 96.3719 14.8676C94.5036 13.707 103.78 11.1741 106.112 10.6152C108.509 9.35032 119.241 6.59218 121.009 3.45238Z" fill="white"/>
<path d="M47.2304 13.1074C46.6747 14.3243 46.5096 15.4411 46.4736 16.7123C46.5794 20.266 42.2929 17.6894 44.0182 21.3005C44.4065 22.9147 41.5163 22.5602 40.4071 23.0304C37.9296 23.629 42.0057 18.3651 42.2499 17.5402C42.5731 17.0261 43.4299 16.7926 43.8031 16.2889C44.875 15.0689 45.2133 13.3034 46.6829 12.4046C46.8677 12.6402 47.0502 12.8759 47.2304 13.1074Z" fill="white"/>
<path d="M44.998 51.9477C42.7565 49.7339 42.0927 46.2646 42.0566 43.374C42.1101 38.6909 46.7268 32.6751 52.5073 33.257C53.4862 33.5125 54.5895 33.7544 54.6709 34.9275C54.7162 35.5949 54.5476 35.9463 53.4943 35.8838C50.0763 35.6481 45.0957 36.5814 44.4632 40.2008C44.7027 44.0268 44.0691 48.0091 45.1922 51.7193C45.1271 51.7955 45.062 51.8716 44.998 51.9477Z" fill="white"/>
<path d="M51.0864 46.8224C51.0271 42.815 56.8494 45.7525 57.6295 48.0581C58.4177 50.2187 54.7521 50.7193 53.3174 51.7829C51.4538 52.5066 51.6665 47.8652 51.0864 46.8224Z" fill="white"/>
<path d="M19.0783 45.0424C18.8819 46.8641 17.6228 47.2103 16.0219 46.6399C14.1385 46.3187 13.8641 45.8057 14.8349 44.2728C15.2557 43.279 16.9729 42.8244 17.8506 43.1706C18.4529 43.5397 18.6854 44.3958 19.0783 45.0424Z" fill="white"/>
<path d="M13.5338 29.6584C9.69253 31.38 7.53009 33.2518 5.42578 36.5375C5.84664 32.5396 9.48907 29.503 13.5338 29.6584Z" fill="white"/>
<path d="M97.0148 35.8369C94.0741 33.3296 89.4164 33.5551 85.7377 32.3402C82.6087 31.5662 82.2171 31.6907 81.3473 34.5446C81.159 35.1571 81.3059 35.921 81.5318 36.547C83.9491 40.9859 84.3784 45.7614 83.2412 50.5706C83.0944 51.5263 82.5334 52.0682 81.528 52.2196C78.7643 52.6403 76.1398 53.8888 73.2028 53.3403C72.3331 53.1787 71.8963 53.6432 72.3293 54.323C74.8634 59.2836 79.3102 63.1302 85.9109 62.7331C99.6995 63.1706 105.332 44.0451 97.0148 35.8369ZM89.7477 60.2629C84.8829 61.3432 78.5308 57.8297 82.9927 56.5744C87.4546 55.3191 87.4659 46.2292 87.4659 46.2292C87.4659 46.2292 85.2595 36.759 87.4659 35.8907C89.6724 35.0224 92.071 35.7864 94.6653 38.9095C97.2596 42.0326 98.7507 47.8278 97.7792 51.597C96.8078 55.3662 94.6126 59.1826 89.7477 60.2629Z" fill="white"/>
</svg>
