<svg width="8" height="6" viewBox="0 0 8 6" fill="none" xmlns="http://www.w3.org/2000/svg">
<path d="M6.97488 2.37227C6.87195 2.38545 7.00796 2.36897 7.01531 2.4283C7.07045 2.43819 7.03002 2.40523 6.97488 2.37227Z" fill="#ED1C24"/>
<path d="M0.905229 4.34163V4.33814C0.893985 4.33116 0.886498 4.32417 0.867758 4.32417C0.86401 4.33814 0.878993 4.34163 0.905229 4.34163Z" fill="#ED1C24"/>
<path d="M3.64543 5.36608C3.64893 5.35972 3.64893 5.35018 3.65243 5.34383C3.64543 5.347 3.63843 5.34701 3.62793 5.35018L3.64543 5.36608Z" fill="#ED1C24"/>
<path d="M6.80607 2.62464C6.72323 2.56742 6.72324 2.53714 6.62157 2.48329L6.64416 2.44964C6.73453 2.49339 6.77971 2.55733 6.85125 2.56742L6.68183 2.39579L6.76843 2.26117L6.08313 2.04916C6.29776 1.98521 6.38812 2.31502 6.66676 2.0256C6.8362 1.96838 7.03952 1.5679 7.03952 1.5679C6.66299 1.61838 6.44837 1.35925 6.22245 1.04626C6.10572 1.04626 5.94382 1.06646 5.87228 0.968862C5.45056 0.881362 5.16439 0.430402 4.69372 0.440498C4.69372 0.49771 4.64102 0.571749 4.6109 0.588576L4.62218 0.541456L4.55064 0.635692C4.51675 0.635692 4.58077 0.507804 4.6109 0.501073C4.49041 0.470784 4.37366 0.440498 4.2607 0.413574C4.11009 0.376555 3.967 0.332802 3.81262 0.26886C3.79756 0.359725 3.74863 0.33617 3.70721 0.32944C3.67332 0.342901 3.64697 0.363092 3.6432 0.443862C3.62814 0.413573 3.63942 0.403478 3.64695 0.366459C3.44362 0.514536 3.45493 0.5179 3.21772 0.369823C3.11229 0.383284 2.99179 0.406843 2.90142 0.42367C2.84494 0.430401 2.78845 0.440498 2.73197 0.450594C2.61901 0.474152 2.51359 0.507802 2.40816 0.541456C2.17094 0.61886 2.08057 0.66261 1.55342 0.79386C0.999917 0.978957 0.510434 1.19771 0.0585938 1.39291C0.160258 1.66887 0.254384 1.9381 0.333456 2.19723C0.668571 2.3756 0.559374 2.49002 0.849305 2.63137L0.755172 2.61791C0.909551 2.7256 0.758956 2.73233 0.679884 2.87031C0.785313 2.86695 0.721298 2.91743 0.886973 2.8905C1.04135 2.92079 0.664807 2.98473 0.758941 3.04531C0.702461 3.05541 0.860607 3.03185 0.807892 3.05204C1.04511 3.16983 0.713752 3.06214 0.589496 3.24724C0.642211 3.33474 0.721287 3.4155 0.781532 3.503C0.841777 3.6006 0.871908 3.64435 0.860612 3.82945C0.849316 3.81262 0.977344 3.77224 0.984875 3.79916C0.728832 3.90012 1.07901 3.8732 0.984875 3.95397C0.93216 3.96743 0.905792 3.9506 0.879434 3.94387C0.804128 4.11887 0.988636 4.16935 0.909564 4.35108C1.04135 4.41839 0.864383 4.69099 1.00747 4.69436C0.905802 4.74484 0.950982 4.80204 0.909564 4.86935C1.10913 4.78522 1.03004 4.94339 1.01498 5.06791C1.04887 5.09484 1.09781 5.10493 1.19948 5.05109L1.15055 5.09484C1.55344 5.12849 1.97139 5.25637 2.41193 5.1857C2.54372 5.18906 2.59644 5.25301 2.65669 5.30685C2.7207 5.3607 2.78845 5.40445 2.87129 5.35061C2.90518 5.31695 2.89388 5.24965 2.92024 5.22609C2.95413 5.23955 2.90519 5.31359 2.91273 5.35061C3.00309 5.24628 3.07086 5.39772 3.16123 5.40782C3.18005 5.36407 3.20641 5.35397 3.21018 5.2833C3.27419 5.49195 3.45492 5.24964 3.53022 5.40782C3.54152 5.15205 3.61307 5.27993 3.65826 5.22945C3.67708 5.24291 3.66578 5.31022 3.65072 5.35734C3.73355 5.33715 3.77498 5.33378 3.85029 5.41791C3.89548 5.39435 3.93313 5.2631 3.97455 5.30685C3.97455 5.48185 4.07622 5.32705 4.11387 5.39772C4.12893 5.24628 4.20423 5.13522 4.27578 5.21262L4.22306 5.42128C4.36237 5.3708 4.51299 5.42128 4.67867 5.45493C4.84058 5.48859 5.02131 5.50878 5.11544 5.38763L5.18321 5.52224C5.29617 5.47512 5.41667 5.48522 5.54092 5.49532C5.61623 5.35733 5.69906 5.20926 5.67647 4.97368C5.75931 4.97705 5.85344 4.91647 5.8911 4.85589C5.85344 4.69772 5.88356 4.67753 5.76683 4.51599C5.7706 4.48234 5.8685 4.53282 5.91369 4.54628C5.99276 4.4857 6.23751 4.45541 6.07936 4.30733L6.1848 4.35782C6.11326 4.25349 6.03417 4.11214 6.18855 4.11214C6.10948 4.0482 6.1095 3.97416 5.97395 3.93714C5.96642 3.90349 6.15844 4.01118 6.06054 3.93041L6.19609 4.028C6.31658 3.91695 6.31281 3.76551 6.31281 3.6006C6.51238 3.65445 6.36931 3.46935 6.51616 3.44916C6.44461 3.35829 6.6291 3.35493 6.43331 3.21022L6.53875 3.26069C6.5877 3.21021 6.63663 3.13618 6.73453 3.0857C6.79101 3.05877 6.64041 2.978 6.60652 2.91743L6.71194 2.96791C6.67428 2.90396 6.54249 2.81983 6.44836 2.75589L6.45967 2.73906C6.48979 2.73233 6.46344 2.70877 6.53498 2.7155C6.57263 2.77271 6.67054 2.85348 6.79856 2.94098C6.8701 2.91743 6.64041 2.73906 6.81738 2.7929C6.88139 2.77271 6.8588 2.72223 6.72325 2.6482C6.7609 2.67848 6.82115 2.66502 6.86633 2.7155C6.88139 2.68521 6.87385 2.66166 6.8362 2.61791C6.82114 2.61454 6.80607 2.61454 6.80607 2.62464ZM6.00782 2.0256L5.87604 1.98521C5.92123 1.97175 5.96641 1.95156 6.01536 1.91117C6.06054 1.89098 6.03041 1.96838 6.00782 2.0256ZM4.81422 1.52752C4.81045 1.56117 4.79161 1.58137 4.77655 1.60829C4.93469 1.47367 4.90082 1.84386 5.09285 1.55107L5.16816 1.42656C5.17192 1.48377 5.13426 1.57463 5.13426 1.62511C5.18698 1.54434 5.2284 1.62848 5.28488 1.51406C5.27359 1.57127 5.25476 1.58136 5.2397 1.62175C5.27359 1.66213 5.39784 1.48713 5.4242 1.54098L5.3903 1.59483C5.43925 1.70588 5.49952 1.81358 5.57482 1.89098L4.63349 1.59819C4.6862 1.5881 4.74644 1.5679 4.81422 1.52752ZM4.28706 1.40973C4.28329 1.42992 4.272 1.45684 4.2607 1.48377L4.24565 1.4804C4.26071 1.46021 4.27576 1.44002 4.28706 1.40973ZM3.66956 1.29867C3.66956 1.3054 3.66956 1.30877 3.66956 1.3155L3.6432 1.32223C3.65073 1.31213 3.65827 1.30877 3.66956 1.29867ZM2.95791 1.52752L2.91649 1.54098C2.92779 1.53088 2.93907 1.52079 2.94283 1.50733C2.9466 1.51406 2.95038 1.52079 2.95791 1.52752ZM2.81859 1.56454L2.796 1.57463C2.796 1.56117 2.80353 1.55444 2.81859 1.56454ZM2.73197 1.53761C2.74327 1.55781 2.73952 1.57127 2.74705 1.59146L2.73197 1.59483C2.72821 1.578 2.73197 1.56117 2.73197 1.53761ZM2.50606 1.62511L2.5136 1.65877L2.47593 1.66886C2.46087 1.62175 2.45335 1.58473 2.50606 1.62511ZM2.44583 1.67896C2.44206 1.6756 2.44206 1.6756 2.44206 1.66886C2.44582 1.67223 2.44583 1.6756 2.44583 1.67896ZM2.03916 1.80011L2.0015 1.81021C1.99397 1.80348 1.99397 1.79675 1.98268 1.78666C1.99774 1.76983 2.01657 1.78329 2.03916 1.80011ZM1.57601 1.71598C1.67768 1.79002 1.5459 1.71934 1.61368 1.78329L1.753 1.86406C1.74923 1.86742 1.75677 1.87752 1.76053 1.88425L1.60614 1.93137C1.56472 1.88425 1.52331 1.83714 1.49696 1.79675C1.54967 1.81358 1.55342 1.73281 1.57601 1.71598ZM1.50449 1.96165C1.48943 1.95156 1.47435 1.94146 1.46306 1.93137C1.46682 1.9381 1.4819 1.94819 1.50449 1.96165ZM6.51616 2.64146L6.53498 2.61454C6.54251 2.63137 6.53498 2.6381 6.51616 2.64146ZM6.60652 2.51695C6.60276 2.51695 6.60275 2.51358 6.59898 2.51358L6.61029 2.49675C6.61782 2.50685 6.61782 2.51358 6.60652 2.51695Z" fill="#ED1C24"/>
<path d="M6.81348 2.59436C6.81959 2.60006 6.81958 2.60575 6.8257 2.61144C6.82876 2.6086 6.83182 2.6029 6.81348 2.59436Z" fill="#ED1C24"/>
<path d="M7.00083 2.48628C6.92975 2.44603 6.83247 2.41583 6.75391 2.37894C6.84743 2.4628 6.91105 2.45273 7.00083 2.48628Z" fill="#ED1C24"/>
</svg>
