<svg width="141" height="78" viewBox="0 0 141 78" fill="none" xmlns="http://www.w3.org/2000/svg">
<path d="M48.2932 65.6045L48.12 66.6848L46.9113 67.8391H45.6198L44.2417 66.53L43.5526 64.5276L42.4306 62.9088L41.7415 60.6742L41.0525 60.0583L40.017 60.5194L38.5523 61.3675L37.0009 63.0636L34.5008 64.3728L32.9495 65.7593L30.2761 66.9911L27.2563 67.9939L24.6695 68.7646L22.3425 69.3805L20.618 69.9963L18.8068 69.5353L16.3067 69.2257L13.3735 68.1454L10.7001 66.6814L9.06215 64.8305L7.85348 62.7507L7.68027 59.4357V57.2011L8.19612 54.7343L9.83404 52.1901L11.3854 49.8006L13.5391 48.1045L15.7795 46.6405L18.7955 46.1795L21.4689 45.8698L24.485 45.254L27.0718 43.79L30.4342 42.2487L32.0721 41.6328L33.7967 41.1718L34.4857 39.553L33.1076 37.3184L31.4697 35.316L28.0206 32.4655L24.485 31.54L21.6384 31.3852L20.6029 31.54H18.7918L16.638 32.4655L14.7403 33.5458L12.4133 33.8554H9.82651L6.81047 34.5487H4.13708L1.98331 33.5458L0.431991 32.1592L0.258789 30.2342L0.774638 28.5381L2.58576 26.6131L4.4835 24.3784L6.81047 22.6823L9.39726 21.4506L12.2439 19.3707L14.9172 18.2904L19.831 17.4424L24.0557 17.1328L27.0718 17.9034L29.5719 19.0578L32.2453 19.8284L35.2614 21.602L36.8127 22.9885L38.364 25.2232L39.4861 28.0736L40.3483 30.8467L41.557 34.5453L42.6791 37.3184L42.8523 39.7078L42.6791 42.7131L43.5413 46.1795L44.0572 49.8006L45.6085 56.1208L46.5574 58.5103L47.4196 60.6675L48.1087 63.3632L48.2932 65.6045ZM36.3081 49.1881L35.6191 48.2626L33.1189 47.6468L30.9651 47.8016L29.0674 48.5723L26.9136 49.1881L24.6732 50.2684L22.5195 50.578L20.6217 51.4261L18.9838 52.5064L17.9483 53.8929L16.6568 55.6665L16.3104 57.2079L15.6214 58.6718V60.5228L16.4836 62.1415L18.8106 62.7574H21.3108L24.0708 62.1415L25.3623 60.9098L27.0868 60.5261L31.1383 58.0593L33.1227 56.905L34.5008 54.9026L35.9655 53.2838L36.1387 51.1266L36.3081 49.1881ZM40.8793 65.1401L40.1902 65.6011L38.7255 65.1401L39.1585 64.2146L40.194 63.6761L40.8793 65.1401ZM47.7736 51.8872L46.7381 52.503L45.7893 52.1934V51.2679L47.4272 50.5747L47.7736 51.8872Z" fill="white"/>
<path d="M90.8073 29.615L89.6024 29.9246L87.9645 29.7698H86.4132L84.0862 30.0795L81.2396 31.5434L79.8615 33.2396L77.0149 34.3199L75.81 35.629L73.483 37.48L72.4475 39.405L71.7585 41.1785V43.4906L71.0694 45.2641L70.2938 47.1151L69.6047 49.1949L69.4315 51.4295V56.4372L69.2583 58.6718L68.5693 60.9065L68.3961 63.0637L68.0496 65.4531V67.6877L66.7581 69.9998L65.2068 71.3089L62.8798 71.9248L61.3285 72.2344L59.9504 71.9248L58.6589 70.693L57.9698 69.2291L57.2808 67.6877L57.454 65.9142L57.2808 63.3699V59.7454L57.1076 58.0492L57.2808 56.1242L57.454 53.58V51.4228L57.8004 48.8785L57.9736 46.3343L57.8004 43.4838V41.1718L57.454 39.2468L57.2808 37.4732L55.8161 35.316L54.6074 33.5424L53.9183 31.6915L53.7451 29.6117L54.0915 27.6867L54.9538 26.3001L56.4185 25.3746L58.8321 24.604L61.5055 23.4496L63.8325 23.7592L66.7619 24.9136L67.1083 26.4549L68.3998 28.5347V31.6948L69.4353 32.6203L70.4707 32.7751L71.9355 32.4655L73.66 31.2338L75.987 29.9246L78.6604 28.8444L80.9007 27.69L83.5741 27.3804L86.4207 26.7645H87.972L90.1258 27.3804L90.8149 28.5347V29.615H90.8073Z" fill="white"/>
<path d="M140.989 20.9087L140.815 22.063L139.524 22.8337L137.283 23.2948L134.783 23.4496L132.11 24.0654H129.696L127.023 24.2203L123.66 24.9135L121.676 24.3751L119.263 25.0683L117.451 26.1486L116.589 27.3804V28.8443L116.416 31.2337L115.727 32.4655V34.3164L115.211 36.3963L114.262 39.4015L113.916 41.9458V51.8872L114.089 54.2766L113.916 57.2045L113.227 59.4391L113.054 61.2127L112.707 64.218L113.396 69.5353L114.085 70.8444L115.207 73.0016L116.932 74.156L120.121 75.2363L122.019 75.0814H125.811L124.862 76.3132L121.846 77.3161H117.794L115.207 76.929L112.534 76.1584L110.034 74.7718L107.447 74.0012L104.774 71.4569L103.482 68.9127L103.309 66.0622L102.62 63.2117L101.931 61.2093L102.277 58.204V55.0439L101.931 52.6545L102.447 50.4198L101.584 47.4145L101.238 43.9482L101.065 41.1751L101.238 38.6309L101.927 35.7804V25.839L99.6 26.1486L97.3596 26.7645L94.8594 27.5352L93.1349 28.6895L91.497 28.9991L90.2921 28.8443L89.603 28.0736V27.2256L89.9494 25.839L90.9849 24.9135L92.796 24.0654L94.6937 24.2203L97.0207 23.7592L99.2611 23.4496L101.935 23.2948L102.281 21.9082L101.935 19.6736L102.281 17.1294L102.454 13.8145L102.281 11.6572L101.935 9.73224L101.245 7.80723V6.11107L102.281 4.18607L104.781 3.10578L106.506 1.48702L109.179 0.561539L111.333 0.716346L113.231 1.48702L115.215 2.64135L115.904 3.72164L117.282 5.18559L117.798 6.41732L119.089 8.34233L119.436 9.26781L119.263 11.5024L118.574 13.1986L118.314 15.1236L117.451 16.6649L117.798 18.1289L119.263 19.0544L121.676 19.5154L124.003 19.2058H130.555L132.453 19.5154L135.815 19.6702L138.315 20.2861L139.52 20.4409L140.989 20.9087ZM138.315 30.3857L137.28 32.0044L135.126 31.6948L134.78 30.2308L136.331 29.7698L138.315 30.3857Z" fill="white"/>
<path d="M139.975 30.3723C139.872 30.3855 140.008 30.369 140.015 30.4283C140.07 30.4382 140.03 30.4052 139.975 30.3723Z" fill="#ED1C24"/>
<path d="M133.905 32.3416V32.3381C133.894 32.3312 133.886 32.3242 133.868 32.3242C133.864 32.3381 133.879 32.3416 133.905 32.3416Z" fill="#ED1C24"/>
<path d="M136.645 33.3661C136.648 33.3597 136.648 33.3502 136.652 33.3438C136.645 33.347 136.638 33.347 136.627 33.3502L136.645 33.3661Z" fill="#ED1C24"/>
<path d="M139.806 30.6246C139.723 30.5674 139.723 30.5371 139.622 30.4833L139.644 30.4496C139.735 30.4934 139.78 30.5573 139.851 30.5674L139.682 30.3958L139.768 30.2612L139.083 30.0492C139.298 29.9852 139.388 30.315 139.667 30.0256C139.836 29.9684 140.04 29.5679 140.04 29.5679C139.663 29.6184 139.448 29.3592 139.222 29.0463C139.106 29.0463 138.944 29.0665 138.872 28.9689C138.451 28.8814 138.164 28.4304 137.694 28.4405C137.694 28.4977 137.641 28.5717 137.611 28.5886L137.622 28.5415L137.551 28.6357C137.517 28.6357 137.581 28.5078 137.611 28.5011C137.49 28.4708 137.374 28.4405 137.261 28.4136C137.11 28.3766 136.967 28.3328 136.813 28.2689C136.798 28.3597 136.749 28.3362 136.707 28.3294C136.673 28.3429 136.647 28.3631 136.643 28.4439C136.628 28.4136 136.639 28.4035 136.647 28.3665C136.444 28.5145 136.455 28.5179 136.218 28.3698C136.112 28.3833 135.992 28.4068 135.901 28.4237C135.845 28.4304 135.788 28.4405 135.732 28.4506C135.619 28.4742 135.514 28.5078 135.408 28.5415C135.171 28.6189 135.081 28.6626 134.553 28.7939C134 28.979 133.51 29.1977 133.059 29.3929C133.16 29.6689 133.254 29.9381 133.333 30.1972C133.669 30.3756 133.559 30.49 133.849 30.6314L133.755 30.6179C133.91 30.7256 133.759 30.7323 133.68 30.8703C133.785 30.8669 133.721 30.9174 133.887 30.8905C134.041 30.9208 133.665 30.9847 133.759 31.0453C133.702 31.0554 133.861 31.0318 133.808 31.052C134.045 31.1698 133.714 31.0621 133.589 31.2472C133.642 31.3347 133.721 31.4155 133.782 31.503C133.842 31.6006 133.872 31.6444 133.861 31.8294C133.849 31.8126 133.977 31.7722 133.985 31.7992C133.729 31.9001 134.079 31.8732 133.985 31.954C133.932 31.9674 133.906 31.9506 133.879 31.9439C133.804 32.1189 133.989 32.1694 133.91 32.3511C134.041 32.4184 133.864 32.691 134.007 32.6944C133.906 32.7448 133.951 32.802 133.91 32.8694C134.109 32.7852 134.03 32.9434 134.015 33.0679C134.049 33.0948 134.098 33.1049 134.199 33.0511L134.151 33.0948C134.553 33.1285 134.971 33.2564 135.412 33.1857C135.544 33.1891 135.596 33.253 135.657 33.3069C135.721 33.3607 135.788 33.4045 135.871 33.3506C135.905 33.317 135.894 33.2496 135.92 33.2261C135.954 33.2395 135.905 33.3136 135.913 33.3506C136.003 33.2463 136.071 33.3977 136.161 33.4078C136.18 33.3641 136.206 33.354 136.21 33.2833C136.274 33.492 136.455 33.2496 136.53 33.4078C136.542 33.152 136.613 33.2799 136.658 33.2295C136.677 33.2429 136.666 33.3102 136.651 33.3573C136.734 33.3371 136.775 33.3338 136.85 33.4179C136.895 33.3944 136.933 33.2631 136.975 33.3069C136.975 33.4819 137.076 33.327 137.114 33.3977C137.129 33.2463 137.204 33.1352 137.276 33.2126L137.223 33.4213C137.362 33.3708 137.513 33.4213 137.679 33.4549C137.841 33.4886 138.021 33.5088 138.115 33.3876L138.183 33.5222C138.296 33.4751 138.417 33.4852 138.541 33.4953C138.616 33.3573 138.699 33.2093 138.676 32.9737C138.759 32.977 138.853 32.9165 138.891 32.8559C138.853 32.6977 138.884 32.6775 138.767 32.516C138.771 32.4823 138.869 32.5328 138.914 32.5463C138.993 32.4857 139.238 32.4554 139.079 32.3073L139.185 32.3578C139.113 32.2535 139.034 32.1121 139.189 32.1121C139.109 32.0482 139.109 31.9742 138.974 31.9371C138.966 31.9035 139.158 32.0112 139.061 31.9304L139.196 32.028C139.317 31.9169 139.313 31.7655 139.313 31.6006C139.512 31.6544 139.369 31.4694 139.516 31.4492C139.445 31.3583 139.629 31.3549 139.433 31.2102L139.539 31.2607C139.588 31.2102 139.637 31.1362 139.735 31.0857C139.791 31.0588 139.64 30.978 139.607 30.9174L139.712 30.9679C139.674 30.904 139.542 30.8198 139.448 30.7559L139.46 30.7391C139.49 30.7323 139.463 30.7088 139.535 30.7155C139.573 30.7727 139.671 30.8535 139.799 30.941C139.87 30.9174 139.64 30.7391 139.817 30.7929C139.881 30.7727 139.859 30.7222 139.723 30.6482C139.761 30.6785 139.821 30.665 139.866 30.7155C139.881 30.6852 139.874 30.6617 139.836 30.6179C139.821 30.6145 139.806 30.6145 139.806 30.6246ZM139.008 30.0256L138.876 29.9852C138.921 29.9718 138.966 29.9516 139.015 29.9112C139.061 29.891 139.03 29.9684 139.008 30.0256ZM137.814 29.5275C137.81 29.5612 137.792 29.5814 137.777 29.6083C137.935 29.4737 137.901 29.8439 138.093 29.5511L138.168 29.4266C138.172 29.4838 138.134 29.5746 138.134 29.6251C138.187 29.5443 138.228 29.6285 138.285 29.5141C138.274 29.5713 138.255 29.5814 138.24 29.6217C138.274 29.6621 138.398 29.4871 138.424 29.541L138.39 29.5948C138.439 29.7059 138.5 29.8136 138.575 29.891L137.633 29.5982C137.686 29.5881 137.746 29.5679 137.814 29.5275ZM137.287 29.4097C137.283 29.4299 137.272 29.4568 137.261 29.4838L137.246 29.4804C137.261 29.4602 137.276 29.44 137.287 29.4097ZM136.67 29.2987C136.67 29.3054 136.67 29.3088 136.67 29.3155L136.643 29.3222C136.651 29.3121 136.658 29.3088 136.67 29.2987ZM135.958 29.5275L135.916 29.541C135.928 29.5309 135.939 29.5208 135.943 29.5073C135.947 29.5141 135.95 29.5208 135.958 29.5275ZM135.819 29.5645L135.796 29.5746C135.796 29.5612 135.804 29.5544 135.819 29.5645ZM135.732 29.5376C135.743 29.5578 135.74 29.5713 135.747 29.5915L135.732 29.5948C135.728 29.578 135.732 29.5612 135.732 29.5376ZM135.506 29.6251L135.514 29.6588L135.476 29.6689C135.461 29.6217 135.453 29.5847 135.506 29.6251ZM135.446 29.679C135.442 29.6756 135.442 29.6756 135.442 29.6689C135.446 29.6722 135.446 29.6756 135.446 29.679ZM135.039 29.8001L135.001 29.8102C134.994 29.8035 134.994 29.7968 134.983 29.7867C134.998 29.7698 135.017 29.7833 135.039 29.8001ZM134.576 29.716C134.678 29.79 134.546 29.7193 134.614 29.7833L134.753 29.8641C134.749 29.8674 134.757 29.8775 134.761 29.8842L134.606 29.9314C134.565 29.8842 134.523 29.8371 134.497 29.7968C134.55 29.8136 134.553 29.7328 134.576 29.716ZM134.504 29.9617C134.489 29.9516 134.474 29.9415 134.463 29.9314C134.467 29.9381 134.482 29.9482 134.504 29.9617ZM139.516 30.6415L139.535 30.6145C139.543 30.6314 139.535 30.6381 139.516 30.6415ZM139.607 30.5169C139.603 30.5169 139.603 30.5136 139.599 30.5136L139.61 30.4968C139.618 30.5069 139.618 30.5136 139.607 30.5169Z" fill="#ED1C24"/>
<path d="M139.813 30.5944C139.819 30.6001 139.819 30.6057 139.825 30.6114C139.828 30.6086 139.831 30.6029 139.813 30.5944Z" fill="#ED1C24"/>
<path d="M140.001 30.4863C139.93 30.446 139.832 30.4158 139.754 30.3789C139.847 30.4628 139.911 30.4527 140.001 30.4863Z" fill="#ED1C24"/>
</svg>
