<svg width="32" height="32" viewBox="0 0 32 32" fill="none" xmlns="http://www.w3.org/2000/svg">
<path fill-rule="evenodd" clip-rule="evenodd" d="M15.8664 32C7.12975 32 0.0219727 24.8224 0.0219727 16C0.0219727 7.17756 7.12975 0 15.8664 0C24.6031 0 31.7109 7.17756 31.7109 16C31.7109 24.8224 24.6031 32 15.8664 32ZM24.0831 21.6207C24.1771 21.6206 24.2671 21.5828 24.3335 21.5158C24.4 21.4487 24.4373 21.3577 24.4375 21.2629V11.2181L16.376 17.6826C16.2268 17.8022 16.0465 17.8621 15.8664 17.8621C15.6862 17.8621 15.506 17.8022 15.3567 17.6826L7.29532 11.2181V21.2629C7.29543 21.3577 7.3328 21.4487 7.39922 21.5158C7.46565 21.5828 7.55571 21.6206 7.64965 21.6207H24.0831ZM22.8478 10.3793L15.8664 15.9777L8.88502 10.3793H22.8478ZM26.0766 10.7371V21.263C26.0766 22.3729 25.1823 23.276 24.0831 23.276H7.64965C6.55044 23.276 5.65628 22.3729 5.65628 21.263V10.7371C5.65628 9.62719 6.5505 8.72419 7.64965 8.72419H24.0831C25.1823 8.72412 26.0766 9.62719 26.0766 10.7371Z" fill="white"/>
</svg>
